<?xml version="1.0" encoding="UTF-8"?><svg id="b" xmlns="http://www.w3.org/2000/svg" viewBox="0 0 112.51 99.12"><g id="c"><path d="M38.3.54c-.42-.72-1.45-.72-1.87,0l-15.24,26.4L.15,63.39c-.42.72.1,1.62.93,1.62h29.86c.39,0,.74-.21.93-.54l4.56-7.9c.42-.72,1.45-.72,1.87,0l4.56,7.9c.19.33.55.54.93.54h29.86c.83,0,1.35-.9.93-1.62l-21.04-36.45L38.3.54Z" style="fill:#79151e;"/><path d="M38.3.54c-.42-.72-1.45-.72-1.87,0l-15.24,26.4L.15,63.39c-.42.72.1,1.62.93,1.62h29.86c.39,0,.74-.21.93-.54l4.56-7.9c.42-.72,1.45-.72,1.87,0l4.56,7.9c.19.33.55.54.93.54h29.86c.83,0,1.35-.9.93-1.62l-21.04-36.45L38.3.54Z" style="fill:#79151e;"/><path d="M2.57,93.72c-.11,0-.21-.04-.3-.13-.09-.09-.13-.19-.13-.3,0-.07,0-.13.02-.18l4.81-13.13c.04-.15.13-.28.26-.4.13-.12.31-.17.54-.17h3.03c.23,0,.41.06.54.17.13.12.21.25.26.4l4.79,13.13c.03.05.04.12.04.18,0,.11-.04.21-.13.3s-.19.13-.32.13h-2.52c-.21,0-.36-.05-.46-.15-.1-.1-.17-.19-.19-.28l-.8-2.09h-5.46l-.78,2.09c-.03.08-.09.17-.18.28-.1.1-.26.15-.49.15h-2.52ZM7.37,88.26h3.8l-1.92-5.4-1.88,5.4Z" style="fill:#1d1d1b;"/><path d="M22.57,93.72c-.87,0-1.63-.14-2.26-.42-.63-.28-1.12-.72-1.46-1.31-.34-.59-.51-1.36-.51-2.3v-3.93h-1.59c-.15,0-.28-.05-.38-.14-.1-.1-.15-.22-.15-.37v-1.66c0-.15.05-.27.15-.37.1-.1.23-.14.38-.14h1.59v-3.38c0-.15.05-.27.15-.37.1-.1.22-.14.36-.14h2.37c.15,0,.27.05.37.14.09.1.14.22.14.37v3.38h2.56c.15,0,.27.05.37.14.1.1.14.22.14.37v1.66c0,.15-.05.27-.14.37-.1.1-.22.14-.37.14h-2.56v3.64c0,.46.09.83.27,1.1.18.27.48.41.9.41h1.58c.15,0,.27.05.37.14.09.1.14.22.14.37v1.78c0,.15-.05.27-.14.37-.1.1-.22.14-.37.14h-1.9Z" style="fill:#1d1d1b;"/><path d="M32.12,93.72c-.87,0-1.63-.14-2.26-.42-.63-.28-1.12-.72-1.46-1.31-.34-.59-.51-1.36-.51-2.3v-3.93h-1.59c-.15,0-.28-.05-.38-.14-.1-.1-.15-.22-.15-.37v-1.66c0-.15.05-.27.15-.37.1-.1.23-.14.38-.14h1.59v-3.38c0-.15.05-.27.15-.37.1-.1.22-.14.36-.14h2.37c.15,0,.27.05.37.14.09.1.14.22.14.37v3.38h2.56c.15,0,.27.05.37.14.1.1.14.22.14.37v1.66c0,.15-.05.27-.14.37-.1.1-.22.14-.37.14h-2.56v3.64c0,.46.09.83.27,1.1.18.27.48.41.9.41h1.58c.15,0,.27.05.37.14.09.1.14.22.14.37v1.78c0,.15-.05.27-.14.37-.1.1-.22.14-.37.14h-1.9Z" style="fill:#1d1d1b;"/><path d="M39.42,93.93c-.74,0-1.39-.14-1.97-.42-.58-.28-1.04-.66-1.38-1.14-.34-.48-.51-1.02-.51-1.62,0-.97.39-1.73,1.19-2.3s1.84-.95,3.15-1.16l2.56-.39v-.29c0-.49-.1-.87-.31-1.12-.21-.26-.58-.39-1.12-.39-.38,0-.69.08-.93.23-.24.15-.43.35-.56.61-.12.18-.29.27-.51.27h-2.29c-.15,0-.27-.04-.35-.13-.08-.09-.12-.19-.1-.32,0-.25.09-.53.28-.85.18-.32.47-.64.85-.95.38-.31.87-.57,1.47-.78.6-.2,1.32-.31,2.17-.31s1.64.1,2.27.31c.63.2,1.14.49,1.52.86s.68.8.87,1.3c.19.5.29,1.05.29,1.65v6.22c0,.15-.05.27-.15.37s-.22.14-.36.14h-2.37c-.15,0-.27-.05-.37-.14-.1-.1-.14-.22-.14-.37v-.72c-.18.26-.42.5-.72.72s-.65.39-1.05.52c-.4.13-.87.19-1.4.19ZM40.39,91.6c.4,0,.75-.08,1.07-.26.32-.17.57-.44.76-.8.18-.36.28-.81.28-1.36v-.29l-1.74.31c-.64.11-1.11.28-1.4.5-.29.23-.44.49-.44.79,0,.23.07.43.21.59.14.16.31.29.53.38.22.09.46.13.74.13Z" style="fill:#1d1d1b;"/><path d="M53.19,93.93c-1.01,0-1.9-.18-2.68-.55s-1.39-.9-1.85-1.61-.71-1.54-.75-2.53c-.01-.22-.02-.49-.02-.83s0-.61.02-.83c.04-1,.29-1.84.74-2.55.45-.7,1.07-1.24,1.85-1.61s1.68-.55,2.69-.55c.94,0,1.75.13,2.41.4.67.27,1.21.6,1.64.99s.74.8.95,1.22c.21.42.32.78.34,1.09.01.14-.03.26-.14.36s-.23.15-.37.15h-2.6c-.15,0-.27-.03-.35-.1s-.16-.17-.22-.31c-.16-.42-.37-.72-.62-.9-.25-.18-.58-.27-.97-.27-.54,0-.96.18-1.26.53s-.45.9-.48,1.64c-.01.55-.01,1.03,0,1.45.03.75.19,1.3.48,1.64s.71.51,1.26.51c.42,0,.76-.09,1-.27.25-.18.44-.48.59-.9.07-.14.14-.24.22-.31.08-.07.2-.1.35-.1h2.6c.14,0,.26.05.37.15s.16.22.14.36c-.01.23-.08.5-.21.81-.12.31-.31.63-.57.97-.26.34-.6.66-1.01.95-.42.29-.92.53-1.5.71-.59.18-1.27.27-2.05.27Z" style="fill:#1d1d1b;"/><path d="M60.88,93.72c-.15,0-.27-.05-.37-.14s-.14-.22-.14-.37v-13.5c0-.15.05-.27.14-.37.1-.1.22-.14.37-.14h2.37c.14,0,.26.05.36.14.1.1.15.22.15.37v6.85l2.84-3.13c.08-.1.17-.18.27-.25.09-.07.23-.1.41-.1h2.74c.12,0,.23.04.32.13.09.09.13.19.13.32,0,.05-.01.12-.04.18s-.07.12-.12.16l-3.68,3.97,4.19,5.09c.11.11.16.22.16.33,0,.12-.04.23-.13.32-.09.09-.2.13-.34.13h-2.8c-.21,0-.36-.04-.45-.11-.1-.08-.18-.15-.27-.24l-3.23-3.89v3.72c0,.15-.05.27-.15.37-.1.1-.22.14-.36.14h-2.37Z" style="fill:#1d1d1b;"/><path d="M73.05,93.72c-.15,0-.27-.05-.37-.14-.1-.1-.14-.22-.14-.37v-13.29c0-.15.05-.27.14-.37.09-.1.22-.14.37-.14h6.24c1.17,0,2.13.16,2.88.49.75.33,1.31.79,1.67,1.4.36.61.54,1.33.54,2.16,0,.49-.09.92-.28,1.3-.18.38-.41.69-.67.93-.27.25-.51.42-.75.53.52.25.98.65,1.38,1.21.4.56.6,1.21.6,1.96,0,.9-.2,1.67-.6,2.32-.4.65-.99,1.15-1.76,1.49s-1.71.52-2.83.52h-6.42ZM76.2,85.09h2.68c.56,0,.98-.14,1.26-.43.28-.29.42-.65.42-1.1s-.14-.79-.42-1.07c-.28-.28-.7-.42-1.26-.42h-2.68v3.03ZM76.2,91.06h2.86c.59,0,1.03-.17,1.33-.51.3-.34.45-.73.45-1.17,0-.48-.15-.88-.46-1.21s-.75-.49-1.32-.49h-2.86v3.37Z" style="fill:#1d1d1b;"/><path d="M91.62,93.93c-1.61,0-2.89-.44-3.84-1.31-.96-.87-1.45-2.17-1.49-3.89v-.72c.04-1.08.28-2,.73-2.77.44-.77,1.06-1.36,1.84-1.76s1.7-.6,2.75-.6c1.2,0,2.19.24,2.98.72.78.48,1.37,1.12,1.77,1.94.4.82.59,1.75.59,2.8v.49c0,.15-.05.27-.15.37-.1.1-.22.14-.36.14h-6.54v.14c.01.4.08.76.21,1.08.12.33.31.59.57.78s.57.29.94.29c.27,0,.5-.04.69-.13.18-.09.34-.19.46-.31.12-.12.22-.21.29-.3.12-.14.22-.22.3-.26s.19-.05.36-.05h2.54c.14,0,.25.04.34.11.09.08.13.18.11.32-.01.23-.13.51-.35.84-.22.33-.54.65-.95.97-.42.32-.94.58-1.57.79-.63.2-1.36.31-2.19.31ZM89.88,87.32h3.46v-.04c0-.44-.07-.82-.19-1.15-.13-.33-.33-.58-.59-.76-.27-.18-.58-.27-.95-.27s-.68.09-.93.27c-.25.18-.45.43-.58.76-.14.33-.21.71-.21,1.15v.04Z" style="fill:#1d1d1b;"/><path d="M102.83,93.93c-.65,0-1.24-.11-1.77-.32-.52-.21-.97-.52-1.35-.94s-.67-.92-.87-1.51c-.21-.59-.32-1.27-.35-2.04-.01-.27-.02-.51-.02-.73s0-.45.02-.71c.03-.74.14-1.4.35-1.98.2-.59.49-1.09.86-1.51.37-.42.82-.75,1.35-.97.53-.22,1.12-.34,1.78-.34s1.27.11,1.76.34c.49.23.91.52,1.25.87v-4.38c0-.15.05-.27.14-.37.1-.1.22-.14.37-.14h2.5c.14,0,.26.05.36.14.1.1.15.22.15.37v13.5c0,.15-.05.27-.15.37s-.22.14-.36.14h-2.31c-.15,0-.27-.05-.37-.14-.1-.1-.14-.22-.14-.37v-.65c-.33.4-.75.72-1.27.98-.52.26-1.16.39-1.92.39ZM103.93,91.19c.46,0,.83-.1,1.09-.3.27-.2.46-.45.59-.77.13-.31.2-.65.21-1.02.01-.27.02-.53.02-.78s0-.5-.02-.76c-.01-.34-.09-.66-.23-.95-.14-.29-.34-.53-.61-.72s-.63-.28-1.06-.28-.81.1-1.07.29c-.27.19-.45.45-.56.78-.11.33-.18.69-.2,1.08-.04.42-.04.85,0,1.27.03.4.09.76.2,1.08.11.33.3.59.56.78.27.19.62.29,1.07.29Z" style="fill:#1d1d1b;"/><path d="M101.53,27.01h-7.72c-.73,0-1.33-.59-1.33-1.33v-14.7c0-6.07-4.92-10.99-10.99-10.99h-30.08c-.85,0-1.39.92-.96,1.66l7.5,12.99c.18.31.51.5.86.5h8.52c.75,0,1.23.8.88,1.46l-4.11,7.77c-.16.3-.15.67.02.97l11,19.06c.18.31.51.5.86.5h8.59c.75,0,1.23.8.88,1.46l-4.14,7.83c-.16.3-.15.67.02.97l5.03,8.7c.4.7,1.15,1.13,1.95,1.13h13.21c6.07,0,10.99-4.92,10.99-10.99v-16.02c0-6.07-4.92-10.99-10.99-10.99Z" style="fill:#79151e;"/></g></svg>